# Blender v2.79 (sub 0) OBJ File: ''
# www.blender.org
mtllib cube.mtl
o Cube
v 1.511791 0.680488 0.501424
v -0.063167 0.362766 1.692457
v -0.302581 -1.454018 0.891222
v 1.272378 -1.136296 -0.299812
v 0.302580 1.454018 -0.891221
v -1.272378 1.136296 0.299812
v -1.511790 -0.680488 -0.501424
v 0.063167 -0.362766 -1.692457
vn 0.6046 -0.3868 0.6963
vn -0.6046 0.3868 -0.6963
vn 0.1197 0.9084 0.4006
vn -0.7875 -0.1589 0.5955
vn -0.1197 -0.9084 -0.4006
vn 0.7875 0.1589 -0.5955
usemtl Material
s off
f 1//1 2//1 3//1 4//1
f 5//2 8//2 7//2 6//2
f 1//3 5//3 6//3 2//3
f 2//4 6//4 7//4 3//4
f 3//5 7//5 8//5 4//5
f 5//6 1//6 4//6 8//6
